<svg fill="none" height="40" viewBox="0 0 40 40" width="40" xmlns="http://www.w3.org/2000/svg"><path d="m20 40c11.0457 0 20-8.9543 20-20 0-11.04569-8.9543-20-20-20-11.04569 0-20 8.95431-20 20 0 11.0457 8.95431 20 20 20z" fill="#006dff"/><g fill="#f5f9ff"><path d="m22.5462 23.2829v2.4849l-9.7684 1.7497v2.4825l12.2081-2.1894c.6704-.1363 1.2758-.4985 1.7186-1.0279.4427-.5294.6968-1.1952.7212-1.8897v-9.9302l-4.8842.8748z"/><path d="m15.2221 12.187c-.6689.1383-1.2726.5016-1.7135 1.0314-.4409.5297-.6935 1.1951-.7169 1.8886v9.9303l4.8842-.8749v-9.9302l9.7684-1.752v-2.4802z"/></g></svg>