<svg width="120" height="120" viewBox="0 0 120 120" fill="none" xmlns="http://www.w3.org/2000/svg">
<g clip-path="url(#clip0_207_52640)">
<path opacity="0.5" d="M94.8587 103.093C112.61 103.093 127 88.7026 127 70.9514C127 53.2002 112.61 38.81 94.8587 38.81C77.1075 38.81 62.7173 53.2002 62.7173 70.9514C62.7173 88.7026 77.1075 103.093 94.8587 103.093Z" fill="url(#paint0_radial_207_52640)"/>
<path d="M64.8177 41.5965L60.5715 41.1542C59.9596 38.0212 58.7433 35.0945 57.0477 32.507L59.8122 29.4476C60.6305 28.5409 60.6157 27.155 59.7753 26.2704L57.0035 23.3437C56.1631 22.4591 54.7846 22.3706 53.8336 23.1373L50.5383 25.8059C47.9729 24.0219 45.061 22.7171 41.8985 22.0242L41.6921 18.0802C41.6257 16.8638 40.6379 15.8907 39.4142 15.8613L35.3891 15.7581C34.1654 15.7286 33.126 16.6353 33.0006 17.8517L32.5878 21.7735C29.2926 22.319 26.2111 23.5133 23.4909 25.2457L20.8444 22.8572C19.9376 22.0389 18.5517 22.0536 17.6671 22.894L14.7405 25.6659C13.8558 26.5063 13.7674 27.8848 14.5341 28.8358L16.7677 31.5929C14.8216 34.2984 13.4209 37.4167 12.7058 40.8004L9.69072 40.9552C8.34904 41.0215 7.28749 42.1126 7.25063 43.4542L7.15479 47.0517C7.11793 48.3934 8.12051 49.536 9.45482 49.6761L12.5289 50.0005C13.126 53.4579 14.4456 56.6794 16.3402 59.4881L14.2465 61.8102C13.4283 62.717 13.443 64.1029 14.2834 64.9875L17.0552 67.9142C17.8956 68.7988 19.2742 68.8872 20.2251 68.1206L22.8127 66.027C25.5771 67.9215 28.7544 69.2485 32.1897 69.8677L32.3593 73.1703C32.4256 74.3867 33.4135 75.3598 34.6372 75.3893L38.6622 75.4925C39.886 75.5219 40.9254 74.6152 41.0507 73.3988L41.4267 69.7866C44.7293 69.1231 47.7886 67.7815 50.472 65.9237L53.1996 68.386C54.1063 69.2042 55.4923 69.1895 56.3769 68.3491L59.3035 65.5773C60.1882 64.7369 60.2766 63.3583 59.5099 62.4074L56.974 59.2743C58.7064 56.6499 59.9375 53.679 60.5494 50.4796L64.5597 50.2732C65.776 50.2069 66.7491 49.2191 66.7786 47.9953L66.8818 43.9703C66.9113 42.7465 66.0046 41.7071 64.7882 41.5818L64.8177 41.5965ZM47.0957 41.5965C50.9364 50.9662 41.8321 60.0115 32.6615 56.5098C29.4179 55.2714 26.8525 52.5659 25.7836 49.2633C22.7684 39.9231 32.2856 31.298 41.4414 35.6327C43.9921 36.8417 46.0341 38.9942 47.1031 41.5965H47.0957Z" fill="url(#paint1_linear_207_52640)"/>
<path d="M41.2648 39.3407L36.9228 38.0506C35.7875 37.7115 34.5638 38.0064 33.7012 38.8247L30.4134 41.943C29.5582 42.7539 29.197 43.9703 29.4772 45.1203L30.5313 49.5213C30.8041 50.6713 31.674 51.5854 32.8092 51.9245L37.1513 53.2146C38.2866 53.5537 39.5103 53.2588 40.3728 52.4406L43.6607 49.3223C44.5232 48.5114 44.877 47.295 44.6043 46.145L43.5501 41.7366C43.2773 40.5866 42.4074 39.6725 41.2722 39.3334L41.2648 39.3407ZM37.601 48.2239C35.6327 48.6219 33.9814 46.8748 34.4827 44.936C34.7186 44.0145 35.4852 43.2699 36.4141 43.0562C38.4193 42.5991 40.1516 44.4126 39.584 46.3956C39.326 47.3097 38.5372 48.0322 37.6083 48.2239H37.601Z" fill="url(#paint2_linear_207_52640)"/>
<path d="M46.536 88.6439L43.6241 88.3416C43.2039 86.189 42.3708 84.1839 41.2135 82.4146L43.108 80.3136C43.6683 79.6944 43.6535 78.7434 43.0785 78.1315L41.1766 76.1264C40.6016 75.5219 39.6506 75.4555 39.0019 75.9863L36.7387 77.8145C34.9842 76.5908 32.9791 75.6988 30.8191 75.2196L30.679 72.5142C30.6348 71.6811 29.9566 71.0177 29.1162 70.9956L26.3517 70.9218C25.5113 70.8997 24.8036 71.5263 24.7152 72.3594L24.435 75.0501C22.1792 75.4261 20.0635 76.2443 18.1984 77.4312L16.3849 75.7947C15.7657 75.2344 14.8147 75.2491 14.2029 75.8241L12.1977 77.7261C11.5932 78.3011 11.5269 79.2521 12.0576 79.9008L13.591 81.7954C12.2567 83.6457 11.2983 85.7909 10.8118 88.1131L8.74029 88.2163C7.8188 88.2605 7.09635 89.0124 7.06687 89.9339L7.00052 92.4035C6.9784 93.325 7.66399 94.1064 8.5781 94.2023L10.6865 94.4234C11.0993 96.7972 11.9987 99.0014 13.2961 100.933L11.866 102.525C11.3057 103.144 11.3204 104.095 11.8955 104.707L13.7974 106.712C14.3724 107.317 15.3234 107.383 15.9721 106.852L17.7487 105.415C19.6433 106.712 21.8254 107.619 24.177 108.054L24.295 110.317C24.3392 111.15 25.0174 111.814 25.8578 111.836L28.6223 111.91C29.4627 111.932 30.1704 111.305 30.2588 110.472L30.5168 107.995C32.78 107.538 34.881 106.624 36.7166 105.349L38.5891 107.037C39.2083 107.597 40.1593 107.582 40.7711 107.007L42.7763 105.105C43.3808 104.53 43.4471 103.579 42.9164 102.931L41.1766 100.785C42.3635 98.9866 43.2112 96.952 43.6314 94.7551L46.3811 94.6151C47.2142 94.5708 47.8776 93.8926 47.8998 93.0522L47.9735 90.2878C47.9956 89.4474 47.369 88.7397 46.536 88.6512V88.6439ZM34.3871 88.6439C37.0188 95.0721 30.7749 101.272 24.4866 98.8687C22.2603 98.0209 20.4984 96.1632 19.7686 93.9C17.7045 87.4938 24.2286 81.5816 30.5021 84.5525C32.2492 85.3781 33.6499 86.8525 34.3797 88.6439H34.3871Z" fill="url(#paint3_linear_207_52640)"/>
<path d="M30.3842 87.0957L27.406 86.2111C26.6245 85.9826 25.7841 86.1816 25.1944 86.7419L22.9386 88.8797C22.3488 89.44 22.1056 90.2657 22.2972 91.0544L23.0197 94.0769C23.2114 94.8657 23.8011 95.4923 24.5825 95.7208L27.5608 96.6055C28.3348 96.834 29.1826 96.635 29.765 96.0747L32.0208 93.9369C32.6105 93.3766 32.8538 92.5509 32.6695 91.7621L31.947 88.7397C31.7554 87.9509 31.1656 87.3243 30.3842 87.0957ZM27.8704 93.1849C26.5213 93.4577 25.3861 92.2634 25.7325 90.9291C25.8947 90.2951 26.4181 89.7865 27.0521 89.639C28.4306 89.322 29.6102 90.5679 29.2268 91.9317C29.0499 92.5583 28.5117 93.0596 27.8704 93.1849Z" fill="url(#paint4_linear_207_52640)"/>
<path opacity="0.2" d="M109.978 113.553L90.9809 83.1516C90.7155 82.7314 90.1626 82.6061 89.7424 82.8641L88.5555 83.6087L87.0369 81.1833C86.7715 80.7557 86.2113 80.6304 85.7837 80.8958L83.8081 82.1343L62.0389 47.2947C62.12 47.0293 62.1642 46.7418 62.12 46.4543L61.8472 44.5745C61.7809 44.1175 61.5597 43.7046 61.2132 43.4024C59.9453 42.2892 56.8343 39.5764 56.6943 39.6648L55.8465 40.1956H55.8317L54.984 40.7338C54.8513 40.8148 55.9202 44.803 56.3625 46.4322C56.4805 46.8745 56.7606 47.2579 57.1366 47.5159L58.7068 48.5922C58.9353 48.747 59.1933 48.8281 59.4513 48.8797L81.2426 83.7413L82.1936 83.1442L79.2596 84.9798C78.8394 85.2452 78.7067 85.8055 78.9721 86.2257L80.4907 88.6584L79.3112 89.3956C78.8836 89.661 78.7583 90.2212 79.0237 90.6414L98.021 121.036C99.2374 122.982 101.803 123.572 103.749 122.355L108.659 119.289C110.605 118.072 111.195 115.507 109.978 113.561V113.553Z" fill="url(#paint5_radial_207_52640)"/>
<path d="M106.053 117.92L101.139 120.99C99.1949 122.205 96.6249 121.612 95.41 119.668L76.4165 89.2719C76.1509 88.8467 76.2799 88.288 76.705 88.0224L87.1329 81.5064C87.5517 81.2446 88.1104 81.3736 88.3722 81.7925L107.369 112.195C108.584 114.139 107.991 116.709 106.047 117.924L106.053 117.92Z" fill="url(#paint6_radial_207_52640)"/>
<path d="M85.9498 82.2561L77.8913 87.2916L76.3717 84.8597C76.1061 84.4346 76.2351 83.8759 76.6602 83.6102L83.1807 79.5357C83.6058 79.2701 84.1708 79.3952 84.4403 79.8265L85.9561 82.2522L85.9498 82.2561Z" fill="url(#paint7_radial_207_52640)"/>
<path d="M78.6398 82.3767L81.1968 80.779L58.9727 45.213L56.4157 46.8107L78.6398 82.3767Z" fill="url(#paint8_linear_207_52640)"/>
<path d="M54.5337 46.1672C54.1504 45.9092 53.8776 45.5258 53.7597 45.0835C53.3174 43.4543 52.2411 39.4661 52.3811 39.385L53.2289 38.8543H53.2436L54.0914 38.3161C54.2241 38.235 57.3424 40.9405 58.6104 42.0537C58.9569 42.3559 59.178 42.7687 59.2444 43.2258L59.5171 45.1056C59.6277 45.8649 59.2812 46.6242 58.6251 47.0297L58.2344 47.273C57.5783 47.6784 56.7453 47.6637 56.1113 47.2287L54.5411 46.1524L54.5337 46.1672Z" fill="url(#paint9_linear_207_52640)"/>
<path d="M103.54 113.235L105.628 111.93L88.8773 85.1228L86.7893 86.4275L103.54 113.235Z" fill="url(#paint10_radial_207_52640)"/>
<path d="M99.6585 115.665L101.747 114.36L84.9955 87.5528L82.9074 88.8576L99.6585 115.665Z" fill="url(#paint11_radial_207_52640)"/>
<path d="M95.7837 118.097L97.8716 116.792L81.1158 89.9873L79.028 91.2925L95.7837 118.097Z" fill="url(#paint12_radial_207_52640)"/>
<path opacity="0.2" d="M90.7816 31.984L86.6017 40.6681L81.0728 40.071L77.1583 36.1197L81.3308 27.443C76.4654 27.5093 71.8358 30.6055 70.2288 35.7732C69.2114 39.0389 70.1329 43.3368 72.2413 46.3371L52.0202 88.379C47.7003 88.4453 43.5794 90.8781 41.5816 95.0358C39.5838 99.1935 40.2399 103.941 42.8938 107.354L47.0737 98.6701L52.6026 99.2673L56.5171 103.211L52.3446 111.888C56.4802 111.829 60.4463 109.581 62.5325 105.732C64.7736 101.589 64.1543 96.547 61.4488 92.9643L81.6552 50.9519C85.9751 50.8856 90.096 48.4455 92.0938 44.2951C94.0916 40.1374 93.4355 35.3899 90.7816 31.9767V31.984Z" fill="url(#paint13_radial_207_52640)"/>
<path d="M89.4183 29.4476L85.2384 38.1317L79.7095 37.5345L75.7951 33.5906L79.9675 24.9139C75.1021 24.9802 70.4726 28.0764 68.8655 33.2441C67.8482 36.5099 68.7696 40.8077 70.878 43.808L50.6569 85.8499C46.337 85.9162 42.2161 88.349 40.2183 92.5067C38.2205 96.6645 38.8766 101.412 41.5305 104.825L45.7104 96.1411L51.2393 96.7382L55.1538 100.682L50.9813 109.359C55.1169 109.3 59.083 107.051 61.1692 103.203C63.4103 99.0603 62.7911 94.018 60.0856 90.4352L80.2919 48.4228C84.6118 48.3565 88.7327 45.9164 90.7305 41.766C92.7283 37.6083 92.0722 32.8608 89.4183 29.4476Z" fill="url(#paint14_radial_207_52640)"/>
<path d="M71.0385 58.2372L68.9591 57.237C68.4602 56.997 67.8611 57.2069 67.621 57.7058L58.2767 77.1306C58.0367 77.6295 58.2466 78.2286 58.7456 78.4686L60.8249 79.4689C61.3239 79.7089 61.923 79.499 62.163 79.0001L71.5073 59.5753C71.7473 59.0764 71.5374 58.4773 71.0385 58.2372Z" fill="url(#paint15_radial_207_52640)"/>
</g>
<defs>
<radialGradient id="paint0_radial_207_52640" cx="0" cy="0" r="1" gradientUnits="userSpaceOnUse" gradientTransform="translate(94.8567 70.948) rotate(22.62) scale(80.0808)">
<stop offset="0.26" stop-color="white"/>
<stop offset="0.32" stop-color="#F6FAFF"/>
<stop offset="0.4" stop-color="#E0EDFF"/>
<stop offset="0.51" stop-color="#BCD8FF"/>
<stop offset="0.63" stop-color="#89BBFF"/>
<stop offset="0.77" stop-color="#4896FF"/>
<stop offset="0.9" stop-color="#006DFF"/>
<stop offset="0.92" stop-color="#006BFA"/>
<stop offset="0.93" stop-color="#0365EC"/>
<stop offset="0.94" stop-color="#085BD5"/>
<stop offset="0.96" stop-color="#0F4EB6"/>
<stop offset="0.97" stop-color="#173D8D"/>
<stop offset="0.98" stop-color="#202D66"/>
</radialGradient>
<linearGradient id="paint1_linear_207_52640" x1="109.624" y1="-28.0162" x2="-49.3434" y2="133.273" gradientUnits="userSpaceOnUse">
<stop offset="0.2" stop-color="#F5F9FF"/>
<stop offset="0.26" stop-color="#EDF4FF"/>
<stop offset="0.36" stop-color="#D9E9FF"/>
<stop offset="0.47" stop-color="#B8D6FF"/>
<stop offset="0.61" stop-color="#8ABBFF"/>
<stop offset="0.75" stop-color="#4E9AFF"/>
<stop offset="0.91" stop-color="#0771FF"/>
<stop offset="0.92" stop-color="#006DFF"/>
</linearGradient>
<linearGradient id="paint2_linear_207_52640" x1="109.624" y1="-28.0162" x2="-49.3431" y2="133.273" gradientUnits="userSpaceOnUse">
<stop stop-color="#F5F9FF"/>
<stop offset="0.18" stop-color="#F2F7FF"/>
<stop offset="0.31" stop-color="#E9F2FF"/>
<stop offset="0.42" stop-color="#D9E9FF"/>
<stop offset="0.52" stop-color="#C3DCFF"/>
<stop offset="0.61" stop-color="#A7CCFF"/>
<stop offset="0.7" stop-color="#85B9FF"/>
<stop offset="0.79" stop-color="#5BA1FF"/>
<stop offset="0.86" stop-color="#2D86FF"/>
<stop offset="0.93" stop-color="#006DFF"/>
</linearGradient>
<linearGradient id="paint3_linear_207_52640" x1="77.262" y1="40.9109" x2="-31.7388" y2="151.504" gradientUnits="userSpaceOnUse">
<stop offset="0.2" stop-color="#F5F9FF"/>
<stop offset="0.26" stop-color="#EDF4FF"/>
<stop offset="0.36" stop-color="#D9E9FF"/>
<stop offset="0.47" stop-color="#B8D6FF"/>
<stop offset="0.61" stop-color="#8ABBFF"/>
<stop offset="0.75" stop-color="#4E9AFF"/>
<stop offset="0.91" stop-color="#0771FF"/>
<stop offset="0.92" stop-color="#006DFF"/>
</linearGradient>
<linearGradient id="paint4_linear_207_52640" x1="77.262" y1="40.9108" x2="-31.7387" y2="151.504" gradientUnits="userSpaceOnUse">
<stop stop-color="#F5F9FF"/>
<stop offset="0.18" stop-color="#F2F7FF"/>
<stop offset="0.31" stop-color="#E9F2FF"/>
<stop offset="0.42" stop-color="#D9E9FF"/>
<stop offset="0.52" stop-color="#C3DCFF"/>
<stop offset="0.61" stop-color="#A7CCFF"/>
<stop offset="0.7" stop-color="#85B9FF"/>
<stop offset="0.79" stop-color="#5BA1FF"/>
<stop offset="0.86" stop-color="#2D86FF"/>
<stop offset="0.93" stop-color="#006DFF"/>
</linearGradient>
<radialGradient id="paint5_radial_207_52640" cx="0" cy="0" r="1" gradientUnits="userSpaceOnUse" gradientTransform="translate(112.309 -94.4197) rotate(-6.1) scale(328.631 328.631)">
<stop offset="0.12" stop-color="#006DFF"/>
<stop offset="0.45" stop-color="#104BAD"/>
<stop offset="0.69" stop-color="#1B357A"/>
<stop offset="0.81" stop-color="#202D66"/>
</radialGradient>
<radialGradient id="paint6_radial_207_52640" cx="0" cy="0" r="1" gradientUnits="userSpaceOnUse" gradientTransform="translate(76.8182 55.7263) rotate(-62.32) scale(54.058 54.058)">
<stop offset="0.11" stop-color="white"/>
<stop offset="0.13" stop-color="#D6E7FF"/>
<stop offset="0.16" stop-color="#95C2FF"/>
<stop offset="0.19" stop-color="#60A4FF"/>
<stop offset="0.22" stop-color="#368CFF"/>
<stop offset="0.24" stop-color="#187BFF"/>
<stop offset="0.26" stop-color="#0670FF"/>
<stop offset="0.28" stop-color="#006DFF"/>
<stop offset="0.34" stop-color="#006BFA"/>
<stop offset="0.41" stop-color="#0365EC"/>
<stop offset="0.49" stop-color="#085BD5"/>
<stop offset="0.56" stop-color="#0F4EB6"/>
<stop offset="0.64" stop-color="#173D8D"/>
<stop offset="0.71" stop-color="#202D66"/>
</radialGradient>
<radialGradient id="paint7_radial_207_52640" cx="0" cy="0" r="1" gradientUnits="userSpaceOnUse" gradientTransform="translate(38.9031 128.008) rotate(-62.32) scale(54.0581 54.0581)">
<stop offset="0.11" stop-color="white"/>
<stop offset="0.13" stop-color="#D6E7FF"/>
<stop offset="0.16" stop-color="#95C2FF"/>
<stop offset="0.19" stop-color="#60A4FF"/>
<stop offset="0.22" stop-color="#368CFF"/>
<stop offset="0.24" stop-color="#187BFF"/>
<stop offset="0.26" stop-color="#0670FF"/>
<stop offset="0.28" stop-color="#006DFF"/>
<stop offset="0.34" stop-color="#006BFA"/>
<stop offset="0.41" stop-color="#0365EC"/>
<stop offset="0.49" stop-color="#085BD5"/>
<stop offset="0.56" stop-color="#0F4EB6"/>
<stop offset="0.64" stop-color="#173D8D"/>
<stop offset="0.71" stop-color="#202D66"/>
</radialGradient>
<linearGradient id="paint8_linear_207_52640" x1="22.1022" y1="28.4566" x2="123.809" y2="105.43" gradientUnits="userSpaceOnUse">
<stop offset="0.18" stop-color="#F5F9FF"/>
<stop offset="0.33" stop-color="#F2F7FF"/>
<stop offset="0.43" stop-color="#E9F2FF"/>
<stop offset="0.52" stop-color="#D9E9FF"/>
<stop offset="0.6" stop-color="#C3DCFF"/>
<stop offset="0.68" stop-color="#A7CCFF"/>
<stop offset="0.75" stop-color="#85B9FF"/>
<stop offset="0.81" stop-color="#5BA1FF"/>
<stop offset="0.88" stop-color="#2D86FF"/>
<stop offset="0.93" stop-color="#006DFF"/>
</linearGradient>
<linearGradient id="paint9_linear_207_52640" x1="29.8801" y1="23.9245" x2="125.199" y2="96.0584" gradientUnits="userSpaceOnUse">
<stop offset="0.16" stop-color="#F5F9FF"/>
<stop offset="0.31" stop-color="#F2F7FF"/>
<stop offset="0.42" stop-color="#E9F2FF"/>
<stop offset="0.51" stop-color="#D9E9FF"/>
<stop offset="0.59" stop-color="#C3DCFF"/>
<stop offset="0.67" stop-color="#A7CCFF"/>
<stop offset="0.74" stop-color="#85B9FF"/>
<stop offset="0.81" stop-color="#5BA1FF"/>
<stop offset="0.88" stop-color="#2D86FF"/>
<stop offset="0.93" stop-color="#006DFF"/>
</linearGradient>
<radialGradient id="paint10_radial_207_52640" cx="0" cy="0" r="1" gradientUnits="userSpaceOnUse" gradientTransform="translate(98.3661 44.9795) rotate(-6.08998) scale(110.674 110.674)">
<stop offset="0.11" stop-color="white"/>
<stop offset="0.13" stop-color="#D6E7FF"/>
<stop offset="0.16" stop-color="#95C2FF"/>
<stop offset="0.19" stop-color="#60A4FF"/>
<stop offset="0.22" stop-color="#368CFF"/>
<stop offset="0.24" stop-color="#187BFF"/>
<stop offset="0.26" stop-color="#0670FF"/>
<stop offset="0.28" stop-color="#006DFF"/>
<stop offset="0.34" stop-color="#006BFA"/>
<stop offset="0.41" stop-color="#0365EC"/>
<stop offset="0.49" stop-color="#085BD5"/>
<stop offset="0.56" stop-color="#0F4EB6"/>
<stop offset="0.64" stop-color="#173D8D"/>
<stop offset="0.71" stop-color="#202D66"/>
</radialGradient>
<radialGradient id="paint11_radial_207_52640" cx="0" cy="0" r="1" gradientUnits="userSpaceOnUse" gradientTransform="translate(98.3666 44.9836) rotate(-6.08998) scale(110.674 110.674)">
<stop offset="0.11" stop-color="white"/>
<stop offset="0.13" stop-color="#D6E7FF"/>
<stop offset="0.16" stop-color="#95C2FF"/>
<stop offset="0.19" stop-color="#60A4FF"/>
<stop offset="0.22" stop-color="#368CFF"/>
<stop offset="0.24" stop-color="#187BFF"/>
<stop offset="0.26" stop-color="#0670FF"/>
<stop offset="0.28" stop-color="#006DFF"/>
<stop offset="0.34" stop-color="#006BFA"/>
<stop offset="0.41" stop-color="#0365EC"/>
<stop offset="0.49" stop-color="#085BD5"/>
<stop offset="0.56" stop-color="#0F4EB6"/>
<stop offset="0.64" stop-color="#173D8D"/>
<stop offset="0.71" stop-color="#202D66"/>
</radialGradient>
<radialGradient id="paint12_radial_207_52640" cx="0" cy="0" r="1" gradientUnits="userSpaceOnUse" gradientTransform="translate(98.3614 44.9892) rotate(-6.10002) scale(110.674 110.674)">
<stop offset="0.11" stop-color="white"/>
<stop offset="0.13" stop-color="#D6E7FF"/>
<stop offset="0.16" stop-color="#95C2FF"/>
<stop offset="0.19" stop-color="#60A4FF"/>
<stop offset="0.22" stop-color="#368CFF"/>
<stop offset="0.24" stop-color="#187BFF"/>
<stop offset="0.26" stop-color="#0670FF"/>
<stop offset="0.28" stop-color="#006DFF"/>
<stop offset="0.34" stop-color="#006BFA"/>
<stop offset="0.41" stop-color="#0365EC"/>
<stop offset="0.49" stop-color="#085BD5"/>
<stop offset="0.56" stop-color="#0F4EB6"/>
<stop offset="0.64" stop-color="#173D8D"/>
<stop offset="0.71" stop-color="#202D66"/>
</radialGradient>
<radialGradient id="paint13_radial_207_52640" cx="0" cy="0" r="1" gradientUnits="userSpaceOnUse" gradientTransform="translate(118.706 -31.37) scale(224.784 224.784)">
<stop offset="0.12" stop-color="#006DFF"/>
<stop offset="0.45" stop-color="#104BAD"/>
<stop offset="0.69" stop-color="#1B357A"/>
<stop offset="0.81" stop-color="#202D66"/>
</radialGradient>
<radialGradient id="paint14_radial_207_52640" cx="0" cy="0" r="1" gradientUnits="userSpaceOnUse" gradientTransform="translate(153.102 -30.3304) rotate(-4.05) scale(170.585 170.585)">
<stop offset="0.11" stop-color="white"/>
<stop offset="0.13" stop-color="#D6E7FF"/>
<stop offset="0.16" stop-color="#95C2FF"/>
<stop offset="0.19" stop-color="#60A4FF"/>
<stop offset="0.22" stop-color="#368CFF"/>
<stop offset="0.24" stop-color="#187BFF"/>
<stop offset="0.26" stop-color="#0670FF"/>
<stop offset="0.28" stop-color="#006DFF"/>
<stop offset="0.34" stop-color="#006BFA"/>
<stop offset="0.41" stop-color="#0365EC"/>
<stop offset="0.49" stop-color="#085BD5"/>
<stop offset="0.56" stop-color="#0F4EB6"/>
<stop offset="0.64" stop-color="#173D8D"/>
<stop offset="0.71" stop-color="#202D66"/>
</radialGradient>
<radialGradient id="paint15_radial_207_52640" cx="0" cy="0" r="1" gradientUnits="userSpaceOnUse" gradientTransform="translate(94.0705 73.3029) rotate(64.55) scale(54.5962)">
<stop offset="0.11" stop-color="white"/>
<stop offset="0.13" stop-color="#D6E7FF"/>
<stop offset="0.16" stop-color="#95C2FF"/>
<stop offset="0.19" stop-color="#60A4FF"/>
<stop offset="0.22" stop-color="#368CFF"/>
<stop offset="0.24" stop-color="#187BFF"/>
<stop offset="0.26" stop-color="#0670FF"/>
<stop offset="0.28" stop-color="#006DFF"/>
<stop offset="0.34" stop-color="#006BFA"/>
<stop offset="0.41" stop-color="#0365EC"/>
<stop offset="0.49" stop-color="#085BD5"/>
<stop offset="0.56" stop-color="#0F4EB6"/>
<stop offset="0.64" stop-color="#173D8D"/>
<stop offset="0.71" stop-color="#202D66"/>
</radialGradient>
<clipPath id="clip0_207_52640">
<rect width="120" height="120" fill="white"/>
</clipPath>
</defs>
</svg>
