<svg width="18" height="18" viewBox="0 0 18 18" fill="none" xmlns="http://www.w3.org/2000/svg">
<g clip-path="url(#clip0_576_54618)">
<path d="M8.60098 14.1872C7.18227 14.1133 5.98522 13.5665 5.00985 12.5468C4.03448 11.5271 3.5468 10.3005 3.5468 8.86699C3.5468 7.38916 4.06404 6.133 5.09852 5.09852C6.133 4.06404 7.38916 3.5468 8.86699 3.5468C10.3005 3.5468 11.5271 4.03448 12.5468 5.00985C13.5665 5.98522 14.1133 7.18227 14.1872 8.60098L12.3251 8.0468C12.133 7.24877 11.7192 6.59483 11.0837 6.08498C10.4483 5.57512 9.70936 5.3202 8.86699 5.3202C7.89163 5.3202 7.05665 5.66749 6.36207 6.36207C5.66749 7.05665 5.3202 7.89163 5.3202 8.86699C5.3202 9.70936 5.57512 10.4483 6.08498 11.0837C6.59483 11.7192 7.24877 12.133 8.0468 12.3251L8.60098 14.1872ZM8.86699 17.734C7.64039 17.734 6.48768 17.5012 5.40887 17.0357C4.33005 16.5702 3.39163 15.9384 2.5936 15.1404C1.79557 14.3424 1.16379 13.4039 0.698276 12.3251C0.232759 11.2463 0 10.0936 0 8.86699C0 7.64039 0.232759 6.48768 0.698276 5.40887C1.16379 4.33005 1.79557 3.39163 2.5936 2.5936C3.39163 1.79557 4.33005 1.16379 5.40887 0.698276C6.48768 0.232759 7.64039 0 8.86699 0C10.0936 0 11.2463 0.232759 12.3251 0.698276C13.4039 1.16379 14.3424 1.79557 15.1404 2.5936C15.9384 3.39163 16.5702 4.33005 17.0357 5.40887C17.5012 6.48768 17.734 7.64039 17.734 8.86699V9.26601C17.734 9.39901 17.7192 9.53202 17.6897 9.66502L15.9606 9.13301V8.86699C15.9606 6.8867 15.2734 5.20936 13.899 3.83498C12.5246 2.46059 10.8473 1.7734 8.86699 1.7734C6.8867 1.7734 5.20936 2.46059 3.83498 3.83498C2.46059 5.20936 1.7734 6.8867 1.7734 8.86699C1.7734 10.8473 2.46059 12.5246 3.83498 13.899C5.20936 15.2734 6.8867 15.9606 8.86699 15.9606H9.13301L9.66502 17.6897C9.53202 17.7192 9.39901 17.734 9.26601 17.734H8.86699ZM16.1158 17.867L12.6355 14.3867L11.9704 16.4039C11.8966 16.6108 11.7562 16.7106 11.5493 16.7032C11.3424 16.6958 11.202 16.5887 11.1281 16.3818L9.11084 9.66502C9.05172 9.50246 9.08867 9.35468 9.22167 9.22167C9.35468 9.08867 9.50246 9.05172 9.66502 9.11084L16.3818 11.1281C16.5887 11.202 16.6958 11.3424 16.7032 11.5493C16.7106 11.7562 16.6108 11.8966 16.4039 11.9704L14.3867 12.6355L17.867 16.1158C17.9557 16.2044 18 16.3079 18 16.4261C18 16.5443 17.9557 16.6478 17.867 16.7365L16.7365 17.867C16.6478 17.9557 16.5443 18 16.4261 18C16.3079 18 16.2044 17.9557 16.1158 17.867Z" fill="#006ADD"/>
</g>
<defs>
<clipPath id="clip0_576_54618">
<rect width="18" height="18" fill="white"/>
</clipPath>
</defs>
</svg>
