<svg width="18" height="18" viewBox="0 0 18 18" fill="none" xmlns="http://www.w3.org/2000/svg">
<g clip-path="url(#clip0_576_54638)">
<g clip-path="url(#clip1_576_54638)">
<path d="M8.25 9.75H16.5C16.5 10.2622 16.4536 10.7636 16.3643 11.25C15.6589 15.0902 12.2941 18 8.25 18C3.69365 18 0 14.3063 0 9.75C0 5.7059 2.90982 2.34113 6.75 1.63574C7.2364 1.5464 7.73777 1.5 8.25 1.5V9.75ZM6.75 3.16699C3.74402 3.84909 1.5 6.53762 1.5 9.75C1.5 13.4779 4.52208 16.5 8.25 16.5C11.4624 16.5 14.1509 14.256 14.833 11.25H6.75V3.16699ZM9.75 0C10.2622 0 10.7636 0.0464011 11.25 0.135742C14.6038 0.751779 17.2482 3.39624 17.8643 6.75C17.9536 7.2364 18 7.73777 18 8.25H9.75V0ZM11.25 6.75H16.333C15.7604 4.22643 13.7736 2.23962 11.25 1.66699V6.75Z" fill="#006ADD"/>
</g>
</g>
<defs>
<clipPath id="clip0_576_54638">
<rect width="18" height="18" fill="white"/>
</clipPath>
<clipPath id="clip1_576_54638">
<rect width="18" height="18" fill="white"/>
</clipPath>
</defs>
</svg>
