<svg width="18" height="18" viewBox="0 0 18 18" fill="none" xmlns="http://www.w3.org/2000/svg">
<g clip-path="url(#clip0_576_54611)">
<path d="M9 0C13.9706 0 18 4.02944 18 9C18 13.9706 13.9706 18 9 18C4.02944 18 0 13.9706 0 9C0 4.02944 4.02944 0 9 0ZM5.34277 9.81836C5.52496 12.9634 6.741 15.457 8.18164 16.1611V9.81836H5.34277ZM9.81836 16.1611C11.2591 15.4571 12.475 12.9635 12.6572 9.81836H9.81836V16.1611ZM1.68359 9.81836C1.93938 12.1313 3.26513 14.1204 5.15625 15.2803C4.33639 13.8347 3.81265 11.923 3.7041 9.81836H1.68359ZM14.2969 9.81836C14.1883 11.9227 13.6635 13.8338 12.8438 15.2793C14.7346 14.1194 16.0606 12.1311 16.3164 9.81836H14.2969ZM5.15625 2.71875C3.26489 3.87857 1.9394 5.86849 1.68359 8.18164H3.7041C3.81267 6.07668 4.33614 4.16441 5.15625 2.71875ZM9.81836 8.18164H12.6572C12.475 5.0362 11.2593 2.54167 9.81836 1.83789V8.18164ZM12.8438 2.71973C13.6637 4.16532 14.1883 6.07697 14.2969 8.18164H16.3164C16.0606 5.86867 14.7349 3.87958 12.8438 2.71973ZM8.18164 1.83789C6.74083 2.54177 5.52497 5.0363 5.34277 8.18164H8.18164V1.83789Z" fill="#006ADD"/>
</g>
<defs>
<clipPath id="clip0_576_54611">
<rect width="18" height="18" fill="white"/>
</clipPath>
</defs>
</svg>
