<svg width="18" height="18" viewBox="0 0 18 18" fill="none" xmlns="http://www.w3.org/2000/svg">
<g clip-path="url(#clip0_576_54626)">
<path fill-rule="evenodd" clip-rule="evenodd" d="M1.4998 2.92493C1.95544 2.92493 2.3248 3.29429 2.3248 3.74993V14.9999C2.3248 15.4556 1.95544 15.8249 1.4998 15.8249C1.04417 15.8249 0.674805 15.4556 0.674805 14.9999V3.74993C0.674805 3.29429 1.04417 2.92493 1.4998 2.92493Z" fill="#006ADD"/>
<path fill-rule="evenodd" clip-rule="evenodd" d="M8.1748 5.17493H14.9998C16.2839 5.17493 17.3248 6.21586 17.3248 7.49993V12.8249H8.1748V5.17493ZM9.8248 6.82493V11.1749H15.6748V7.49993C15.6748 7.12713 15.3726 6.82493 14.9998 6.82493H9.8248Z" fill="#006ADD"/>
<path fill-rule="evenodd" clip-rule="evenodd" d="M5.2498 7.57493C4.87701 7.57493 4.5748 7.87713 4.5748 8.24993C4.5748 8.62272 4.87701 8.92493 5.2498 8.92493C5.6226 8.92493 5.9248 8.62272 5.9248 8.24993C5.9248 7.87713 5.6226 7.57493 5.2498 7.57493ZM2.9248 8.24993C2.9248 6.96586 3.96574 5.92493 5.2498 5.92493C6.53387 5.92493 7.5748 6.96586 7.5748 8.24993C7.5748 9.53399 6.53387 10.5749 5.2498 10.5749C3.96574 10.5749 2.9248 9.53399 2.9248 8.24993Z" fill="#006ADD"/>
<path fill-rule="evenodd" clip-rule="evenodd" d="M0.674805 11.9999C0.674805 11.5443 1.04417 11.1749 1.4998 11.1749H16.4998C16.9554 11.1749 17.3248 11.5443 17.3248 11.9999C17.3248 12.4556 16.9554 12.8249 16.4998 12.8249H1.4998C1.04417 12.8249 0.674805 12.4556 0.674805 11.9999Z" fill="#006ADD"/>
<path fill-rule="evenodd" clip-rule="evenodd" d="M16.4998 6.67493C16.9554 6.67493 17.3248 7.04429 17.3248 7.49993V14.9999C17.3248 15.4556 16.9554 15.8249 16.4998 15.8249C16.0442 15.8249 15.6748 15.4556 15.6748 14.9999V7.49993C15.6748 7.04429 16.0442 6.67493 16.4998 6.67493Z" fill="#006ADD"/>
</g>
<defs>
<clipPath id="clip0_576_54626">
<rect width="18" height="18" fill="white"/>
</clipPath>
</defs>
</svg>
