<svg width="18" height="18" viewBox="0 0 18 18" fill="none" xmlns="http://www.w3.org/2000/svg">
<g clip-path="url(#clip0_576_54633)">
<path fill-rule="evenodd" clip-rule="evenodd" d="M2.1748 2.25005C2.1748 0.965986 3.21574 -0.0749512 4.4998 -0.0749512H13.4998C14.7839 -0.0749512 15.8248 0.965987 15.8248 2.25005V16.6968C15.8248 17.9014 14.2485 18.3549 13.6083 17.3346L13.3656 16.9478L11.4878 17.8867C11.0895 18.0859 10.6136 18.0481 10.2517 17.7885L8.9998 16.8904L7.74792 17.7885C7.38603 18.0481 6.91013 18.0859 6.51177 17.8867L4.63397 16.9478L4.39128 17.3346C3.75109 18.3549 2.1748 17.9014 2.1748 16.6968V2.25005ZM4.4998 1.57505C4.12701 1.57505 3.8248 1.87726 3.8248 2.25005V15.3506C4.17047 15.1306 4.61803 15.0951 5.00653 15.2894L7.00678 16.2895L8.30032 15.3615C8.71841 15.0616 9.2812 15.0616 9.69929 15.3615L10.9928 16.2895L12.9931 15.2894C13.3816 15.0951 13.8291 15.1306 14.1748 15.3506V2.25005C14.1748 1.87726 13.8726 1.57505 13.4998 1.57505H4.4998Z" fill="#006ADD"/>
<path fill-rule="evenodd" clip-rule="evenodd" d="M6.67827 7.0433C6.60229 5.82758 7.69499 4.86162 9.0442 4.86162C9.73288 4.86162 10.2711 5.09706 10.6317 5.32841C10.8118 5.4439 10.9511 5.56041 11.0485 5.65156C11.0974 5.69735 11.1365 5.73743 11.1656 5.76874C11.1801 5.78442 11.1923 5.79798 11.2019 5.80905L11.2146 5.82377L11.2195 5.82967L11.2217 5.83223L11.2227 5.83342C11.2227 5.83342 11.2236 5.83454 10.5867 6.359L11.2236 5.83454C11.5132 6.18626 11.4629 6.7062 11.1112 6.99585C10.7627 7.28281 10.2492 7.23608 9.95802 6.89318L9.95646 6.89148C9.95139 6.88603 9.93949 6.87357 9.92107 6.85633C9.88374 6.8214 9.82282 6.76982 9.74081 6.71721C9.57739 6.61237 9.34433 6.51162 9.0442 6.51162C8.45572 6.51162 8.33602 6.84383 8.32575 6.92706C8.33884 6.99005 8.38071 7.0721 8.53262 7.19417C8.72732 7.35063 8.9974 7.48972 9.3736 7.67782C9.78113 7.88158 9.94632 8.37714 9.74255 8.78467C9.53879 9.1922 9.04323 9.35739 8.6357 9.15362C8.62422 9.14788 8.61261 9.14208 8.60089 9.13622C8.26983 8.97083 7.84582 8.759 7.49907 8.48036C7.11933 8.17521 6.75345 7.72857 6.68171 7.08294C6.68025 7.06976 6.6791 7.05654 6.67827 7.0433Z" fill="#006ADD"/>
<path fill-rule="evenodd" clip-rule="evenodd" d="M8.38542 8.12587C8.58918 7.71834 9.08474 7.55316 9.49227 7.75692C9.50375 7.76266 9.51536 7.76846 9.52708 7.77432C9.85813 7.93971 10.2822 8.15155 10.6289 8.43018C11.0086 8.73533 11.3745 9.18197 11.4463 9.8276C11.4477 9.84078 11.4489 9.854 11.4497 9.86724C11.5257 11.083 10.433 12.0489 9.08377 12.0489C8.39509 12.0489 7.85688 11.8135 7.49623 11.5821C7.31621 11.4666 7.1769 11.3501 7.0795 11.259C7.03056 11.2132 6.99148 11.1731 6.9624 11.1418C6.94784 11.1261 6.93572 11.1126 6.92606 11.1015L6.91339 11.0868L6.90843 11.0809L6.9063 11.0783L6.90531 11.0771C6.90531 11.0771 6.90439 11.076 7.54123 10.5515L6.90439 11.076C6.61474 10.7243 6.66505 10.2043 7.01677 9.9147C7.36522 9.62774 7.87878 9.67446 8.16995 10.0174L8.17151 10.0191C8.17658 10.0245 8.18848 10.037 8.2069 10.0542C8.24422 10.0891 8.30515 10.1407 8.38716 10.1933C8.55058 10.2982 8.78364 10.3989 9.08377 10.3989C9.67224 10.3989 9.79195 10.0667 9.80222 9.98349C9.78913 9.92049 9.74726 9.83844 9.59535 9.71637C9.40065 9.55991 9.13057 9.42083 8.75437 9.23273C8.34684 9.02896 8.18165 8.53341 8.38542 8.12587Z" fill="#006ADD"/>
<path fill-rule="evenodd" clip-rule="evenodd" d="M9.08373 3.67505C9.53936 3.67505 9.90873 4.04441 9.90873 4.50005V5.40975C9.90873 5.86539 9.53936 6.23475 9.08373 6.23475C8.62809 6.23475 8.25873 5.86539 8.25873 5.40975V4.50005C8.25873 4.04441 8.62809 3.67505 9.08373 3.67505Z" fill="#006ADD"/>
<path fill-rule="evenodd" clip-rule="evenodd" d="M9.08373 10.7153C9.53936 10.7153 9.90873 11.0847 9.90873 11.5403V12.45C9.90873 12.9057 9.53936 13.275 9.08373 13.275C8.62809 13.275 8.25873 12.9057 8.25873 12.45V11.5403C8.25873 11.0847 8.62809 10.7153 9.08373 10.7153Z" fill="#006ADD"/>
</g>
<defs>
<clipPath id="clip0_576_54633">
<rect width="18" height="18" fill="white"/>
</clipPath>
</defs>
</svg>
