<svg width="24" height="24" fill="none" xmlns="http://www.w3.org/2000/svg"><path fill-rule="evenodd" clip-rule="evenodd" d="M3 18.5a1 1 0 0 1 1 1V21a1 1 0 0 0 1 1h16a1 1 0 1 1 0 2H5a3 3 0 0 1-3-3v-1.5a1 1 0 0 1 1-1z" fill="#006ADD"/><path fill-rule="evenodd" clip-rule="evenodd" d="M2 3a3 3 0 0 1 3-3h14a3 3 0 0 1 3 3v15.2a3 3 0 0 1-3 3H2V3zm3-1a1 1 0 0 0-1 1v16.2h15a1 1 0 0 0 1-1V3a1 1 0 0 0-1-1H5z" fill="#006ADD"/><path fill-rule="evenodd" clip-rule="evenodd" d="m15.5 9 1.544-2.47A1 1 0 0 0 16.196 5H8a1 1 0 0 0-1 1v7h9.196a1 1 0 0 0 .848-1.53L15.5 9zM9 11h5.392l-1.25-2 1.25-2H9v4z" fill="#006ADD"/><path fill-rule="evenodd" clip-rule="evenodd" d="M8 5a1 1 0 0 1 1 1v10a1 1 0 1 1-2 0V6a1 1 0 0 1 1-1z" fill="#006ADD"/></svg> 
