<svg xmlns="http://www.w3.org/2000/svg" width="20" height="20" viewBox="0 0 20 20">
    <g fill="none" fill-rule="evenodd">
        <g fill="#D11D1D">
            <g>
                <g>
                    <g>
                        <g>
                            <path d="M10 0c5.523 0 10 4.477 10 10s-4.477 10-10 10S0 15.523 0 10 4.477 0 10 0zm0 1.818c-4.519 0-8.182 3.663-8.182 8.182S5.481 18.182 10 18.182s8.182-3.663 8.182-8.182S14.519 1.818 10 1.818zm0 11.818c.502 0 .91.407.91.91 0 .502-.408.909-.91.909s-.91-.407-.91-.91c0-.502.408-.909.91-.909zm0-9.09c.502 0 .91.406.91.909v5.909c0 .502-.408.909-.91.909s-.91-.407-.91-.91V5.456c0-.503.408-.91.91-.91z" transform="translate(-1260 -527) translate(936 389) translate(0 117) translate(24 11) translate(300 10)"/>
                        </g>
                    </g>
                </g>
            </g>
        </g>
    </g>
</svg>
