<svg width="20" height="20" viewBox="0 0 20 20" fill="none" xmlns="http://www.w3.org/2000/svg">
<g clip-path="url(#clip0_576_54657)">
<path d="M10 0C15.5228 1.28852e-07 20 4.47715 20 10C20 15.5228 15.5228 20 10 20C4.47715 20 1.28855e-07 15.5228 0 10C0 4.47715 4.47715 0 10 0ZM10 1.81836C5.48131 1.81836 1.81836 5.48131 1.81836 10C1.81836 14.5187 5.48131 18.1816 10 18.1816C14.5187 18.1816 18.1816 14.5187 18.1816 10C18.1816 5.48131 14.5187 1.81836 10 1.81836ZM10 13.6357C10.5019 13.6358 10.9089 14.0431 10.9092 14.5449C10.9092 15.047 10.502 15.4541 10 15.4541C9.49796 15.4541 9.09082 15.047 9.09082 14.5449C9.09111 14.0431 9.49814 13.6358 10 13.6357ZM10 4.54492C10.5019 4.54497 10.9089 4.95226 10.9092 5.4541V11.3633C10.9091 11.8653 10.502 12.2724 10 12.2725C9.49799 12.2724 9.09087 11.8653 9.09082 11.3633V5.4541C9.09106 4.95226 9.49811 4.54497 10 4.54492Z" fill="#D11D1D"/>
</g>
<defs>
<clipPath id="clip0_576_54657">
<rect width="20" height="20" fill="white"/>
</clipPath>
</defs>
</svg>
