<svg xmlns="http://www.w3.org/2000/svg" width="25" height="25" viewBox="0 0 25 25">
    <g fill="none" fill-rule="evenodd">
        <g fill="#1B7B3E">
            <g>
                <g>
                    <path d="M6.622 12.049c-.398-.38-1.033-.364-1.414.035-.38.4-.365 1.033.035 1.414l3.89 3.7c.187.178.434.277.69.277l.033-.001c.269-.01.522-.125.704-.322L22.64 4.154c.374-.406.346-1.04-.06-1.413-.405-.372-1.038-.347-1.413.06L9.775 15.049l-3.153-3zm16.984-3.124c-.142-.533-.69-.851-1.223-.71-.533.142-.852.689-.71 1.224.315 1.187.407 2.415.271 3.648-.29 2.655-1.597 5.038-3.68 6.71-2.083 1.673-4.693 2.439-7.35 2.143-2.654-.29-5.038-1.598-6.71-3.681-1.673-2.083-2.434-4.692-2.143-7.348.29-2.655 1.598-5.038 3.681-6.71 2.083-1.673 4.695-2.434 7.35-2.142.901.098 1.782.317 2.618.649.512.208 1.096-.046 1.3-.558.205-.514-.046-1.095-.56-1.3-1.004-.4-2.06-.661-3.142-.78C6.735-.64.794 4.116.073 10.695c-.349 3.185.565 6.317 2.57 8.817 2.007 2.499 4.868 4.067 8.055 4.416.445.049.888.072 1.328.072 2.72 0 5.339-.916 7.49-2.643 2.5-2.006 4.068-4.867 4.417-8.052.162-1.48.052-2.952-.327-4.38z" transform="translate(-1257 -186) translate(936 168) translate(321 18)"/>
                </g>
            </g>
        </g>
    </g>
</svg>
