<svg xmlns="http://www.w3.org/2000/svg" width="20" height="20" viewBox="0 0 20 20">
    <g fill="none" fill-rule="evenodd">
        <g fill="#D57800">
            <g>
                <g>
                    <g>
                        <g>
                            <path d="M10.055 5.834c-.503 0-.91.407-.91.91v4.684c0 .502.407.91.91.91.501 0 .909-.408.909-.91V6.743c0-.502-.408-.909-.91-.909m8.263 9.933c-.035.064-.09.064-.109.064H1.792c-.018 0-.074 0-.109-.064-.034-.064-.005-.11.005-.125L9.896 2.557c.01-.014.037-.057.104-.057.068 0 .095.043.104.058l8.209 13.084c.01.015.039.061.004.125m1.407-1.016L11.506 1.668c-.329-.523-.891-.835-1.506-.835s-1.177.312-1.506.835L.276 14.75c-.347.55-.368 1.248-.055 1.82.313.571.912.926 1.56.926h16.437c.65 0 1.248-.355 1.561-.926.314-.572.292-1.27-.055-1.82m-9.67-1.58c-.502 0-.91.407-.91.91 0 .5.408.908.91.908s.91-.407.91-.908c0-.503-.408-.91-.91-.91" transform="translate(-1259 -659) translate(936 389) translate(0 117) translate(24 143) translate(299 10)"/>
                        </g>
                    </g>
                </g>
            </g>
        </g>
    </g>
</svg>
